<?xml version="1.0" encoding="UTF-8"?>
<svg id="Layer_1" data-name="Layer 1" xmlns="http://www.w3.org/2000/svg" viewBox="0 0 31.65 29.04">
  <defs>
    <style>
      .cls-1 {
        fill: #1261cb;
      }

      .cls-2 {
        fill: #fcaf40;
      }
    </style>
  </defs>
  <path class="cls-1" d="m0,28.85c.18-.92.36-1.78.53-2.65.95-4.75,1.91-9.51,2.86-14.26.78-3.87,1.56-7.74,2.32-11.61C5.77.07,5.86,0,6.12,0c5.1,0,10.2,0,15.3,0,1.98,0,3.93.16,5.82.8.83.28,1.6.66,2.29,1.2,1.21.94,1.91,2.17,2.07,3.69.2,1.89-.15,3.65-1.39,5.16-1.01,1.23-2.32,2.04-3.78,2.64-.42.17-.83.35-1.31.55.45.2.85.38,1.24.55,1.08.46,2.07,1.05,2.81,1.99.82,1.03,1.14,2.22,1.12,3.51,0,.3.07.68-.08.89-.14.19-.52.2-.81.28-5.21,1.35-10.41,2.69-15.62,4.04-4.49,1.16-8.99,2.32-13.48,3.49-.08.02-.17.04-.31.07h0Zm9.8-5.58c.07,0,.1.02.13.02,2.47,0,4.94,0,7.41,0,1.01,0,1.98-.2,2.82-.79,1.13-.78,1.47-1.9,1.3-3.19-.16-1.14-.96-1.72-1.99-2.05-.26-.08-.54-.14-.81-.15-2.48-.02-4.96-.02-7.44-.02-.07,0-.19.12-.21.2-.24,1.14-.47,2.27-.7,3.41-.17.85-.34,1.7-.51,2.57h0Zm2.33-11.58c.11,0,.18.02.26.02,1.99,0,3.97,0,5.96,0,.44,0,.89-.05,1.32-.13,1.64-.33,2.55-1.37,2.67-3.02.08-1.12-.44-1.98-1.48-2.44-.6-.26-1.23-.34-1.87-.34-1.8,0-3.6,0-5.4,0-.21,0-.29.06-.33.27-.26,1.34-.54,2.68-.81,4.02-.11.54-.21,1.09-.32,1.65h0Z"/>
  <path class="cls-2" d="m6.58,28.98c7.72-2,15.44-3.99,23.22-6.01-.06.16-.11.28-.16.4-.67,1.49-1.81,2.55-3.16,3.4-1.69,1.06-3.58,1.58-5.53,1.92-1.51.26-3.03.34-4.56.34-3.27,0-6.54,0-9.81,0v-.06h0Z"/>
</svg>